<svg xmlns="http://www.w3.org/2000/svg" viewBox="0 0 425.45 400.93"><defs><style>.cls-1,.cls-3{opacity:0.38;}.cls-13,.cls-2,.cls-3{fill:#e8aeb1;}.cls-11,.cls-4{fill:#fff;}.cls-5{fill:#a3d0d8;}.cls-6{fill:#82b7bc;}.cls-7{fill:#bce0e8;}.cls-8{fill:#a9c0c9;}.cls-9{fill:#8ca8af;}.cls-10{fill:#c7e0e8;}.cls-11{font-size:16.88px;font-family:TwCenMT-CondensedExtraBold, Tw Cen MT Condensed Extra Bold;letter-spacing:0.15em;}.cls-11,.cls-13{font-weight:800;}.cls-12{letter-spacing:0.12em;}.cls-13{font-size:41px;font-family:Swiss721BT-BlackCondensed, Swis721 BlkCn BT;letter-spacing:0.05em;}</style></defs><g id="Layer_2" data-name="Layer 2"><g id="OBJECTS"><g class="cls-1"><path class="cls-2" d="M228.36,16.09c-21.12-.2-149-2.18-152.81,33.47C71.94,83.7,121.51,71.2,122,86.35c.51,15.92-8.94,20.53-35.33,19.52-11.43-.44-47.52,3.6-48.1,26.38s39.73,19.8,37.73,38.59c-1.15,21.37-31.76,26-43.82,31.66C19.38,209.35-4.73,220.65.81,244.9,8.1,273,54.4,268,71.84,271.43c11.64,1.89,48.68,5.15,43.41,30.07-2.77,15-33.17,15.85-27.35,35.07,5.88,18,58.89,21.51,69.63,22.09,44.57,2.42,142.46,6.36,186-12,16-6.69,30.18-14.75,28.54-38.79-.8-21.47-12.37-24.61,7.13-41.2,12.32-10.68,35.92-9.82,34.53-41C413,208.84,370,201.86,371,184.27c1.5-27.65,54.29-4.17,54.48-53.07.12-30.53-95.92-13.45-94.94-43.64-1.29-12.26,19.85-17.46,18.94-31C350,34.83,325.07,18.76,228.36,16.09Z"/></g><path class="cls-2" d="M144.56,237.5a.65.65,0,0,1-.38.1H70.65a.74.74,0,0,1-.73-.55c-.81-3.5,3.24-6.24,6-4.9a3.64,3.64,0,0,1,4-2.78,6.43,6.43,0,0,1,3.74-8,6.19,6.19,0,0,1,7.79,2.08c1-5.42,5.72-10.1,11.41-10.49a12.42,12.42,0,0,1,8.77,2.69c2.4,2,3.18,4.22,3.78,6.92a6.9,6.9,0,0,1,8-2.76c3.3,1,3.71,4.4,3.56,7.43,2.66-2.21,5.86-3.28,9.33-1.19,2.88,1.73,3.51,4.51,3.62,7.54,2.37-1.41,4.82,0,5,3.23A.62.62,0,0,1,144.56,237.5Z"/><path class="cls-3" d="M349.67,85.12c0,14.09,38.24,16.69,40.23,0S349.67,64,349.67,85.12Z"/><path class="cls-3" d="M40.94,301.91c0,14.1,47.32,16.82,49,0C92.09,281.17,40.94,277.23,40.94,301.91Z"/><path class="cls-3" d="M316.74,381.42c0,16.72,56.12,19.95,58.15,0C377.4,356.83,316.74,352.15,316.74,381.42Z"/><path class="cls-3" d="M36.94,86.11c0,9.2,26.08,11,27,0C65.13,72.57,36.94,70,36.94,86.11Z"/><path class="cls-4" d="M186.41,250c.78-3.92-5-7.51-9.47-6.07.72-2.68-.11-5.12-4.06-6.32a10.09,10.09,0,0,0-5.37,0c3.12-6.22.22-13.3-9.42-14.77-10.48-1.59-22.11,3.56-24.19,11.83-8.53-8.37-26.59,1.66-21.25,11.3-3.3-.52-6.69,1.34-6.89,4.11a3.36,3.36,0,0,0-3.91,5.2,1,1,0,0,0,.77.34h89a1,1,0,0,0,.54-.14.67.67,0,0,0,.31-.37C193.44,252.21,189.71,249.48,186.41,250Z"/><path class="cls-4" d="M187.33,316.36c.34-1.73-2.22-3.32-4.19-2.68.32-1.19,0-2.27-1.79-2.8a4.57,4.57,0,0,0-2.38,0c1.38-2.75.1-5.88-4.16-6.52-4.64-.71-9.78,1.57-10.7,5.23-3.77-3.71-11.76.73-9.4,5-1.46-.23-3,.59-3.05,1.82a1.48,1.48,0,0,0-1.72,2.3.42.42,0,0,0,.34.15h39.33a.43.43,0,0,0,.24-.06.34.34,0,0,0,.14-.17C190.44,317.34,188.79,316.13,187.33,316.36Z"/><path class="cls-4" d="M346.13,156a.52.52,0,0,0,.29.07h54.69a.56.56,0,0,0,.54-.41,3.3,3.3,0,0,0-4.44-3.64,2.71,2.71,0,0,0-3-2.07,4.78,4.78,0,0,0-2.79-5.93,4.61,4.61,0,0,0-5.79,1.55,9.65,9.65,0,0,0-8.48-7.8,9.27,9.27,0,0,0-6.53,2,8.41,8.41,0,0,0-2.81,5.16,5.12,5.12,0,0,0-6-2.06c-2.46.77-2.77,3.27-2.66,5.53-2-1.65-4.35-2.44-6.94-.89-2.14,1.29-2.6,3.36-2.69,5.61-1.76-1.05-3.59,0-3.73,2.4A.48.48,0,0,0,346.13,156Z"/><path class="cls-4" d="M203.56,57.75a.36.36,0,0,0,.19,0h37a.38.38,0,0,0,.37-.28,2.23,2.23,0,0,0-3-2.46,1.84,1.84,0,0,0-2-1.4,3.24,3.24,0,0,0-1.88-4,3.13,3.13,0,0,0-3.92,1,6.53,6.53,0,0,0-5.73-5.27,6.26,6.26,0,0,0-4.41,1.35,5.6,5.6,0,0,0-1.9,3.48,3.46,3.46,0,0,0-4.05-1.38c-1.66.51-1.87,2.2-1.79,3.73a3.81,3.81,0,0,0-4.69-.6c-1.45.87-1.76,2.27-1.82,3.79-1.19-.71-2.42,0-2.52,1.62A.31.31,0,0,0,203.56,57.75Z"/><path class="cls-2" d="M291.12,378.46a.77.77,0,0,0-.71-.72l-27.93.46a.71.71,0,0,0-.71.71c.22,5.38-.24,10.93.65,16.26.83,5,6.28,5.35,10.49,5.59,5.4.32,13.1.51,16.21-2.35C292.71,395.1,291.31,383.73,291.12,378.46Z"/><path class="cls-5" d="M266.62,389a5.36,5.36,0,0,1-5.2-4,.43.43,0,0,1,.32-.51.43.43,0,0,1,.52.32c0,.16,1,4.07,5.6,3.24,3.05-.56,3.28-6.94,3.28-7a.44.44,0,0,1,.38-.41.42.42,0,0,1,.46.31c.08.27.17.64.26,1.05.35,1.55.89,3.89,2,4.86,1.4,1.22,4.61,1.37,6.26.64s2.55-3.08,2.49-5.26c0-.31-.07-.64-.09-1a.43.43,0,0,1,.86-.08,7.77,7.77,0,0,1,.09,1c.36,2.34,1.73,4.29,3.48,4.81,1.38.42,2.73-.17,3.78-1.66a.43.43,0,0,1,.71.5c-1.27,1.78-3,2.51-4.74,2a5.81,5.81,0,0,1-3.45-3.33,5.12,5.12,0,0,1-2.79,3.82c-1.92.85-5.47.7-7.16-.78a8.15,8.15,0,0,1-2-4c-.41,2.14-1.38,5-3.71,5.39A7.82,7.82,0,0,1,266.62,389Z"/><path class="cls-2" d="M275.8,375.86c-2.95,0-13,.13-14.1,2.39-1.47,3.19,14.87,2.94,18,2.83C294.68,380.59,296.47,375.11,275.8,375.86Z"/><path class="cls-5" d="M275.8,375.29c-1.71,0-16-.25-14.74,3.63.64,1.89,3.68,2.06,5.28,2.29a75.73,75.73,0,0,0,10.75.49,54.45,54.45,0,0,0,9.46-.74c1.4-.25,4.43-.73,5.05-2.35,1.6-4.2-14.66-3.36-15.8-3.32a.57.57,0,0,0,0,1.14,77.81,77.81,0,0,1,9.78.21c.58.06,6.26.81,4.4,2-3.44,2.25-8.94,1.85-12.89,1.89-4.39,0-9.09.12-13.37-1-2.06-.56-.67-1.75.7-2.15a24,24,0,0,1,4.47-.69c2.29-.22,4.61-.26,6.91-.27A.57.57,0,0,0,275.8,375.29Z"/><path class="cls-6" d="M291.32,344.18c-.19,11.31-.59,22.62-.74,33.93a.43.43,0,0,0,.86,0c.15-11.31.56-22.62.74-33.93a.43.43,0,0,0-.86,0Z"/><path class="cls-6" d="M259.57,344c.35,11.45.5,22.86,1.7,34.26.06.55.92.55.86,0-1.2-11.4-1.35-22.81-1.7-34.26,0-.55-.88-.55-.86,0Z"/><path class="cls-6" d="M275.06,345.91c1,11.54-.24,23.12.77,34.66.05.54.91.55.86,0-1-11.54.2-23.12-.77-34.66,0-.55-.9-.56-.86,0Z"/><path class="cls-2" d="M335.61,245.67c-3.6-9.15-10.25-18.26-20.66-20.14l-.23,0a1,1,0,0,0-.17,0c-7.77-.79-12.29,7-15,12.89-4.94,10.72-7.1,22.72-9,34.25-3.8,22.67-7.72,47.51-1.07,70a1.5,1.5,0,0,0,2.7.35c7.11-10.93,21.78-14.68,31.16-23.4,9.8-9.11,14.78-22.43,16.37-35.31C341.29,271.1,340.51,258.1,335.61,245.67Z"/><path class="cls-7" d="M258.23,282.34c-3.45-18.65-11.6-37.29-21-53.82a1.33,1.33,0,0,0-1.37-.7,1.56,1.56,0,0,0-.66.18c-9.45,4.86-14.53,14.17-17.71,23.79-3.42,10.32-5.21,22.9-3.62,33.7,2.06,14,10,26.32,20.36,35.88,8.52,7.83,19.13,12.91,26.74,21.87a1.5,1.5,0,0,0,2.53-1C263.3,322.24,261.87,302,258.23,282.34Z"/><path class="cls-7" d="M303.18,214.72c-8.35-4.56-18.1-5.33-27.33-3.5a1.25,1.25,0,0,0-1,.85c-5.58,8-6.39,19.09-7.21,28.4-1.29,14.64-.94,29.43-.29,44.09.88,19.77,2.54,39.57,5.06,59.2a1.5,1.5,0,0,0,1.48,1.45h17a1.47,1.47,0,0,0,1.28-.72c15.69-28.8,20.08-63.44,22.7-95.55.6-7.32,1.08-14.67,1.2-22C316.11,222.08,306.72,216.65,303.18,214.72Z"/><path class="cls-2" d="M279.66,216.9c-2.66-15.33-29.72-3.1-36.88,2.14-6.62,4.84-8.42,9.42-8.84,16.82a200.43,200.43,0,0,0,1.52,37A179,179,0,0,0,248.71,322q3.12,7.13,6.85,13.94c1.13,2.06,3.63,8.6,6.07,9.26,3.58,1,8.51,0,12.24,0a1.36,1.36,0,0,0,1.36-1,1.78,1.78,0,0,0,.12-.48c2.34-27.95,4.19-56,5.15-84C281,245.7,282.08,230.85,279.66,216.9Z"/><path class="cls-2" d="M259.18,345.86a95.57,95.57,0,0,0,33.48,0c3.13-.55,1.8-4.74-1.32-4.2a88.26,88.26,0,0,1-30.84,0c-3.12-.58-4.44,3.62-1.32,4.2Z"/><path class="cls-2" d="M158.05,73.22a.25.25,0,0,0-.05-.15.27.27,0,0,0-.26-.16l-12.1.2a.31.31,0,0,0-.31.31,57,57,0,0,0,.29,7c.36,2.15,2.72,2.32,4.54,2.42,2.34.14,5.67.22,7-1C158.73,80.43,158.13,75.51,158.05,73.22Z"/><path class="cls-8" d="M147.44,77.78A2.34,2.34,0,0,1,145.18,76a.2.2,0,0,1,.14-.23.18.18,0,0,1,.22.14,2,2,0,0,0,2.43,1.4c1.32-.24,1.42-3,1.42-3a.19.19,0,0,1,.37,0c0,.12.07.28.11.46a4.35,4.35,0,0,0,.87,2.11,3,3,0,0,0,2.71.27,2.36,2.36,0,0,0,1.08-2.28c0-.13,0-.27,0-.41a.19.19,0,0,1,.17-.2.19.19,0,0,1,.2.16c0,.14,0,.28,0,.42a2.47,2.47,0,0,0,1.51,2.08,1.46,1.46,0,0,0,1.64-.72.19.19,0,1,1,.3.22,1.83,1.83,0,0,1-2,.86,2.52,2.52,0,0,1-1.5-1.44,2.21,2.21,0,0,1-1.21,1.66,3.41,3.41,0,0,1-3.1-.34,3.65,3.65,0,0,1-.85-1.74c-.17.93-.59,2.16-1.6,2.34A3.38,3.38,0,0,1,147.44,77.78Z"/><path class="cls-2" d="M151.41,72.1c-1.28,0-5.63.05-6.11,1-.64,1.38,6.44,1.27,7.81,1.23C159.59,74.15,160.36,71.77,151.41,72.1Z"/><path class="cls-8" d="M151.41,71.85c-.74,0-6.95-.11-6.39,1.57.28.82,1.6.9,2.29,1a31.56,31.56,0,0,0,4.66.22,24.46,24.46,0,0,0,4.1-.32c.61-.11,1.92-.32,2.19-1,.69-1.82-6.36-1.46-6.85-1.44a.25.25,0,0,0,0,.49,35.26,35.26,0,0,1,4.24.09c.25,0,2.71.36,1.9.89-1.49,1-3.87.79-5.58.81a22,22,0,0,1-5.79-.44c-.9-.24-.29-.76.3-.93a10.61,10.61,0,0,1,1.93-.3c1-.1,2-.11,3-.12A.25.25,0,0,0,151.41,71.85Z"/><path class="cls-9" d="M158.14,58.37c-.09,4.9-.26,9.8-.33,14.7a.19.19,0,0,0,.37,0c.07-4.9.25-9.8.33-14.7a.19.19,0,0,0-.37,0Z"/><path class="cls-9" d="M144.38,58.29c.15,5,.21,9.9.73,14.84,0,.24.4.24.38,0-.52-4.94-.59-9.88-.74-14.84,0-.24-.38-.24-.37,0Z"/><path class="cls-9" d="M151.09,59.12c.42,5-.1,10,.33,15,0,.23.4.23.38,0-.44-5,.08-10-.33-15,0-.24-.4-.24-.38,0Z"/><path class="cls-2" d="M177.32,15.7c-1.56-4-4.44-7.92-8.95-8.73h-.17c-3.37-.35-5.33,3-6.51,5.58-2.13,4.65-3.07,9.85-3.91,14.84-1.65,9.82-3.35,20.58-.47,30.32a.66.66,0,0,0,1.18.15c3.08-4.74,9.43-6.36,13.49-10.14,4.25-3.94,6.41-9.71,7.1-15.3A33.55,33.55,0,0,0,177.32,15.7Z"/><path class="cls-10" d="M143.8,31.58c-1.5-8.08-5-16.16-9.1-23.32a.56.56,0,0,0-.59-.3.67.67,0,0,0-.29.08c-4.09,2.1-6.29,6.14-7.67,10.3a33.53,33.53,0,0,0-1.57,14.6c.89,6.06,4.32,11.41,8.82,15.55,3.69,3.39,8.29,5.59,11.59,9.47a.64.64,0,0,0,1.09-.44A151.4,151.4,0,0,0,143.8,31.58Z"/><path class="cls-10" d="M163.27,2.29A17.51,17.51,0,0,0,151.43.77a.52.52,0,0,0-.44.37c-2.42,3.45-2.77,8.27-3.12,12.3a144.92,144.92,0,0,0-.13,19.1c.38,8.57,1.1,17.14,2.19,25.65a.66.66,0,0,0,.64.63h7.36a.66.66,0,0,0,.56-.31c6.79-12.48,8.69-27.49,9.83-41.4.26-3.17.47-6.35.52-9.53C168.87,5.47,164.8,3.12,163.27,2.29Z"/><path class="cls-2" d="M153.08,3.23c-1.15-6.64-12.87-1.34-16,.93-2.86,2.09-3.64,4.08-3.83,7.29a87.48,87.48,0,0,0,.66,16,77.93,77.93,0,0,0,5.74,21.28c.91,2.06,1.89,4.07,3,6,.49.9,1.57,3.73,2.63,4,1.55.42,3.69,0,5.3,0a.58.58,0,0,0,.59-.42.73.73,0,0,0,.06-.21c1-12.11,1.81-24.25,2.23-36.39C153.65,15.71,154.13,9.27,153.08,3.23Z"/><path class="cls-2" d="M144.21,59.1a41.54,41.54,0,0,0,14.5,0c1.36-.24.79-2.05-.56-1.82a38.25,38.25,0,0,1-13.37,0c-1.35-.25-1.92,1.57-.57,1.82Z"/><text class="cls-11" transform="translate(146.52 170.63)">NO SE ENCUENTRA LA <tspan x="44.89" y="20.26">C</tspan><tspan class="cls-12" x="54.82" y="20.26">A</tspan><tspan x="65.82" y="20.26">TEGORIA</tspan></text><text class="cls-13" transform="translate(175.91 139.43)">Oops!</text></g></g></svg>